# xmcd
#
# Track frame offsets:
#       150
#       25200
#       46435
#       77067
#       100342
#       128022
#       151852
#       178100
#       200400
#       230457
#       254475
#       279260
#
# Disc length: 4033 seconds
#
# Revision: 1
# Processed by: cddbd v1.5.1PL0 Copyright (c) Steve Scherf et al.
# Submitted via: MusiCat 1.1
#
DISCID=9a0fbf0c
DTITLE=Al's Records - Al's Records - Series 1
DYEAR=1997
DGENRE=
TTITLE0=Touch Me
TTITLE1=A Nu Era
TTITLE2=Streetplayer
TTITLE3=Rough Cut
TTITLE4=Double Edge
TTITLE5=F.V.R.
TTITLE6=Nag
TTITLE7=New York
TTITLE8=Reactivate
TTITLE9=Bounce
TTITLE10=Skatta
TTITLE11=Jazz Shaker
EXTD=Island\nALSCD 1001      524 350 2\n
EXTT0=
EXTT1=
EXTT2=
EXTT3=
EXTT4=
EXTT5=
EXTT6=
EXTT7=
EXTT8=
EXTT9=
EXTT10=
EXTT11=
PLAYORDER=
